{"title":"Akira Kurosawa - Nora Inu [1949]","uid":5361291,"size":1734948585,"categoryP":"video","categoryS":"movies","magnet":"?xt=urn:btih:6d5c2cc5403b6ab29aeee43ecbfeafb1efd7fb7e&amp;dn=Akira+Kurosawa+-+Nora+Inu+%5B1949%5D&amp;tr=udp%3A%2F%2Ftracker.openbittorrent.com%3A80&amp;tr=udp%3A%2F%2Fopen.demonii.com%3A1337&amp;tr=udp%3A%2F%2Ftracker.coppersurfer.tk%3A6969&amp;tr=udp%3A%2F%2Fexodus.desync.com%3A6969","seeders":2,"leechers":2,"uploader":"mfccorrea","files":4,"time":1266111282,"description":"Akira Kurosawa directs the black-and-white 1949 film noir Nora Inu (released in the U.S. in 1963 as Stray Dog). In his third film with Kurosawa, Toshiro Mifune plays young police detective Murakami. One summer day on a crowded bus in Tokyo, his gun is stolen by a pickpocket. Rather than face the shame of reporting his gun missing, he chooses to go out and find it himself (there were not many weapons on the streets of Tokyo immediately following WWII). While trying to locate the gun, he discovers an entire criminal underworld. He is eventually helped on his journey by superior officer Sato (Takashi Shimura), who seems to suggest that the young detective is indulging in his own criminal desires. The search becomes even more desperate when Murakami finds out that his gun has been used in several crimes, including murder. He then develops an obsession with finding both the gun and the killer.\n\n   General\n      Complete name : Nora Inu.avi\n      Format : AVI\n      Format/Info : Audio Video Interleave\n      File size : 1.62 GiB\n      Duration : 2h 2mn\n      Overall bit rate : 1 887 Kbps\n      Writing application : VirtualDubMod 1.5.10.2 (build 2540/release)\n      Writing library : VirtualDubMod build 2540/release\n   Video #0\n      ID : 0\n      Format : MPEG-4 Visual\n      Format profile : AdvancedSimple@L5\n      Format settings, BVOP : Yes\n      Format settings, QPel : No\n      Format settings, GMC : No warppoints\n      Format settings, Matrix : Default (MPEG)\n      Codec ID : XVID\n      Codec ID/Hint : XviD\n      Duration : 2h 2mn\n      Bit rate : 1 617 Kbps\n      Width : 640 pixels\n      Height : 480 pixels\n      Display aspect ratio : 4:3\n      Frame rate : 23.976 fps\n      Resolution : 24 bits\n      Colorimetry : 4:2:0\n      Scan type : Progressive\n      Bits/(Pixel*Frame) : 0.219\n      Stream size : 1.38 GiB (86%)\n      Writing library : XviD 1.2.1 (UTC 2008-12-04)\n   Audio #1\n      ID : 1\n      Format : MPEG Audio\n      Format version : Version 1\n      Format profile : Layer 3\n      Codec ID : 55\n      Codec ID/Hint : MP3\n      Duration : 2h 2mn\n      Bit rate mode : Constant\n      Bit rate : 128 Kbps\n      Channel(s) : 1 channel\n      Sampling rate : 48.0 KHz\n      Resolution : 16 bits\n      Stream size : 112 MiB (7%)\n      Alignment : Aligned on interleaves\n      Interleave, duration : 42 ms (1.00 video frame)\n      Interleave, preload duration : 504 ms\n   Audio #2\n      ID : 2\n      Format : MPEG Audio\n      Format version : Version 1\n      Format profile : Layer 3\n      Codec ID : 55\n      Codec ID/Hint : MP3\n      Duration : 2h 2mn\n      Bit rate mode : Constant\n      Bit rate : 128 Kbps\n      Channel(s) : 2 channels\n      Sampling rate : 48.0 KHz\n      Resolution : 16 bits\n      Stream size : 112 MiB (7%)\n      Alignment : Aligned on interleaves\n      Interleave, duration : 42 ms (1.00 video frame)\n      Interleave, preload duration : 504 ms\n      Writing library : LAME3.90.3\n\nIMDB: tt0041699\n\nDual audio. Main is film audio, secondary are comments\n\nFilm audio: Japanese\n\nSubtitles: English, Spanish and Portuguese\n\nPosted at KG by sigloxx","torrent":{"xt":"urn:btih:6d5c2cc5403b6ab29aeee43ecbfeafb1efd7fb7e","amp;dn":"Akira+Kurosawa+-+Nora+Inu+%5B1949%5D","amp;tr":["udp%3A%2F%2Ftracker.openbittorrent.com%3A80","udp%3A%2F%2Fopen.demonii.com%3A1337","udp%3A%2F%2Ftracker.coppersurfer.tk%3A6969","udp%3A%2F%2Fexodus.desync.com%3A6969"],"infoHash":"6d5c2cc5403b6ab29aeee43ecbfeafb1efd7fb7e","infoHashBuffer":{"type":"Buffer","data":[109,92,44,197,64,59,106,178,154,238,228,62,203,254,175,177,239,215,251,126]},"announce":[],"urlList":[]}}